# xmcd
#
# Track frame offsets: 
#        150
#        22992
#        52327
#        71327
#        91970
#        113057
#        140785
#        165525
#        187987
#        210580
#        233057
#        247905
#
# Disc length: 3544 seconds
#
# Revision: 12
# Processed by: cddbd v1.5.2PL0 Copyright (c) Steve Scherf et al.
# Submitted via: ExactAudioCopy v1.1
#
DISCID=9e0dd60c
DTITLE=Taj Mahal and Toumani Diabaté - Kulanjan
DYEAR=1999
DGENRE=New Age
TTITLE0=Queen Bee
TTITLE1=Tunkaranke
TTITLE2=Ol' George Buck
TTITLE3=Kulanjan
TTITLE4=Fanta
TTITLE5=Guede Man Na
TTITLE6=Catfish Blues
TTITLE7=K'an Ben
TTITLE8=Take This Hammer
TTITLE9=Atlanta Kaira
TTITLE10=Mississippi-Mali Blues
TTITLE11=Sahara
EXTD=YEAR: 1999
EXTT0=
EXTT1=
EXTT2=
EXTT3=
EXTT4=
EXTT5=
EXTT6=
EXTT7=
EXTT8=
EXTT9=
EXTT10=
EXTT11=
PLAYORDER=
